<?xml version="1.0" standalone="no"?>
<!DOCTYPE svg PUBLIC "-//W3C//DTD SVG 20010904//EN"
 "http://www.w3.org/TR/2001/REC-SVG-20010904/DTD/svg10.dtd">
<svg version="1.0" xmlns="http://www.w3.org/2000/svg"
 width="1490.000000pt" height="460.000000pt" viewBox="0 0 1490.000000 460.000000"
 preserveAspectRatio="xMidYMid meet">

<g transform="translate(0.000000,460.000000) scale(0.100000,-0.100000)"
fill="#000000" stroke="none">
<path d="M2025 4163 c-111 -14 -278 -51 -380 -84 -135 -44 -347 -145 -391
-186 -16 -15 -64 -53 -107 -84 -258 -185 -455 -414 -587 -684 -50 -100 -123
-302 -115 -315 2 -3 -2 -33 -10 -66 -38 -164 -47 -274 -42 -483 4 -178 8 -220
30 -306 36 -142 77 -247 93 -241 7 3 16 -4 20 -17 14 -47 122 -263 137 -276
23 -19 22 -15 -22 80 -48 104 -85 214 -117 344 -25 103 -44 263 -24 198 6 -18
13 -33 17 -33 3 0 4 71 1 158 -3 86 -2 184 1 217 5 47 8 25 13 -105 7 -159 35
-345 56 -359 10 -7 43 -75 103 -215 49 -115 118 -225 198 -316 71 -81 107
-132 103 -146 -1 -7 26 -54 60 -106 66 -98 217 -256 343 -357 177 -142 457
-266 690 -305 173 -29 300 -46 350 -46 79 0 350 46 460 78 658 191 1158 729
1294 1393 62 301 51 646 -29 924 -26 92 -88 252 -104 268 -6 6 -40 63 -75 125
-154 274 -341 479 -591 647 -91 61 -276 155 -313 159 -12 1 -67 16 -122 34
-246 78 -477 113 -734 111 -97 -1 -189 -4 -206 -6z m248 -450 c15 -3 27 -1 27
4 0 5 27 9 59 8 32 0 57 -3 54 -7 -2 -5 7 -8 21 -8 14 0 26 5 26 10 0 13 73 2
78 -11 5 -13 32 -11 32 2 0 7 8 9 23 4 12 -4 31 -7 41 -6 10 0 28 -7 40 -16
20 -14 19 -15 -16 -9 -70 12 -39 -10 40 -28 202 -48 499 -190 547 -262 8 -13
21 -24 28 -24 14 0 135 -139 188 -215 47 -67 79 -134 72 -151 -3 -9 1 -14 11
-14 9 0 16 -6 14 -12 -2 -7 1 -14 5 -15 22 -6 37 -37 43 -90 3 -32 14 -76 23
-98 34 -79 44 -111 45 -152 0 -23 7 -48 14 -55 6 -6 12 -24 12 -38 0 -15 3
-30 8 -34 10 -10 11 -43 11 -246 0 -122 -3 -176 -11 -181 -7 -4 -11 -25 -10
-48 2 -21 -2 -42 -7 -45 -5 -4 -13 -28 -17 -54 -3 -26 -14 -56 -24 -67 -10
-11 -21 -34 -24 -51 -8 -34 -80 -156 -131 -219 -18 -22 -40 -56 -49 -75 -17
-36 -90 -120 -105 -120 -4 0 -16 -16 -27 -35 -10 -19 -24 -35 -31 -35 -7 0
-13 -7 -13 -15 0 -24 29 -18 53 11 43 51 79 89 71 75 -4 -9 -2 -12 6 -9 7 2
14 12 16 22 3 23 24 46 24 27 0 -8 11 -3 27 13 26 27 43 30 50 9 2 -6 -4 -14
-15 -17 -10 -4 -25 -17 -32 -31 -7 -14 -36 -44 -63 -67 -27 -24 -53 -53 -58
-65 -5 -14 -17 -23 -29 -23 -11 0 -20 -4 -20 -10 0 -5 -6 -10 -13 -10 -7 0
-26 -13 -42 -30 -15 -16 -31 -28 -34 -28 -13 3 -84 -46 -72 -50 7 -2 30 8 51
22 22 14 44 26 50 26 5 0 27 15 47 33 21 18 64 52 96 76 37 27 57 48 53 57 -4
9 2 14 17 14 16 0 42 23 86 75 34 41 65 75 68 75 11 0 -45 -85 -71 -107 -16
-13 -36 -37 -45 -52 -37 -64 -57 -91 -68 -91 -6 0 -15 -9 -18 -20 -4 -11 -24
-29 -45 -40 -21 -11 -45 -28 -52 -38 -28 -40 -207 -139 -298 -167 -14 -4 -32
-14 -42 -22 -9 -8 -49 -21 -89 -30 -40 -8 -86 -21 -101 -29 -15 -8 -46 -14
-70 -15 -50 -1 -107 -16 -73 -19 11 -1 -2 -7 -29 -14 -30 -9 -91 -13 -160 -11
-98 2 -107 1 -81 -10 27 -12 24 -13 -40 -9 -120 8 -349 47 -358 61 -4 7 -25
13 -46 13 -22 0 -44 6 -51 15 -7 9 -33 20 -57 27 -27 6 -50 20 -60 34 -8 13
-23 24 -32 24 -28 0 -106 56 -178 128 -36 37 -80 76 -98 87 -35 22 -105 97
-105 112 0 6 -16 21 -35 34 -19 13 -35 32 -35 42 0 11 -5 17 -12 14 -24 -8 -8
-52 30 -84 24 -21 36 -39 34 -53 -2 -14 2 -20 16 -20 11 0 25 -7 32 -15 9 -11
9 -15 1 -15 -6 0 -2 -13 10 -29 12 -16 18 -34 15 -40 -10 -15 -26 -14 -26 2 0
8 -16 28 -35 46 -19 17 -35 37 -35 44 0 7 -22 33 -49 58 -33 31 -53 59 -60 86
-6 22 -20 48 -31 58 -11 10 -17 21 -15 26 3 4 -5 25 -17 46 -15 25 -24 33 -26
22 -3 -17 28 -85 86 -189 46 -81 28 -91 -41 -24 -53 51 -57 59 -51 89 5 28 2
34 -15 40 -27 8 -33 20 -87 177 -48 140 -61 212 -74 418 -2 25 -4 28 -7 13 -2
-13 -9 -23 -15 -23 -13 0 -1 250 13 265 12 12 12 58 -1 50 -5 -3 -12 -21 -16
-40 -3 -19 -10 -35 -15 -35 -5 0 -9 -32 -9 -70 0 -54 -4 -72 -15 -76 -8 -4
-15 -14 -15 -24 0 -11 -4 -21 -9 -24 -13 -9 -21 59 -21 195 0 100 3 129 15
139 13 11 15 8 15 -21 0 -26 3 -30 10 -19 5 8 10 28 10 43 0 39 37 217 62 302
32 108 96 251 154 346 62 99 133 183 134 157 0 -31 15 -20 65 45 55 71 145
167 158 167 4 0 5 -5 1 -12 -5 -8 -2 -9 10 -5 10 4 24 7 32 7 9 0 12 5 9 10
-7 12 30 45 80 70 25 13 32 14 28 3 -3 -7 0 -13 6 -13 7 0 14 7 17 15 4 8 14
15 25 15 10 0 24 8 31 18 17 25 214 101 291 113 33 6 65 13 70 16 6 3 37 8 71
10 34 3 72 11 86 18 14 7 32 11 40 8 8 -2 27 -7 43 -10z m-648 -153 c-3 -5
-11 -10 -16 -10 -6 0 -7 5 -4 10 3 6 11 10 16 10 6 0 7 -4 4 -10z m2041 -1988
c-17 -16 -18 -16 -5 5 7 12 15 20 18 17 3 -2 -3 -12 -13 -22z m-2387 -342 c6
0 11 -10 11 -22 0 -12 10 -33 23 -47 18 -20 13 -18 -25 9 -27 18 -56 42 -65
53 -17 20 -17 20 0 14 15 -6 17 -3 12 16 l-6 22 20 -22 c10 -13 24 -23 30 -23z
m446 -391 c87 -44 162 -83 165 -87 3 -5 14 -12 25 -17 19 -8 19 -9 -2 -12 -12
-2 -35 3 -52 11 -16 9 -36 16 -44 16 -38 0 -342 182 -355 212 -2 5 -12 8 -22
8 -10 0 -22 9 -25 20 -3 11 -12 20 -18 21 -7 1 -1 4 13 8 21 6 36 -2 90 -47
42 -34 123 -82 225 -133z"/>
<path d="M1115 1400 c3 -5 10 -10 16 -10 5 0 9 5 9 10 0 6 -7 10 -16 10 -8 0
-12 -4 -9 -10z"/>
<path d="M2588 873 c7 -3 16 -2 19 1 4 3 -2 6 -13 5 -11 0 -14 -3 -6 -6z"/>
<path d="M5706 3503 l-266 -236 0 -372 0 -373 -115 -102 c-63 -57 -115 -104
-115 -105 0 -1 52 -47 115 -101 l114 -99 1 -365 0 -365 267 -238 267 -237 500
0 501 0 262 233 262 232 0 468 1 467 -480 0 -480 0 0 -205 0 -205 275 0 275 0
0 -153 0 -154 -147 -136 -148 -137 -321 0 -321 0 -147 127 -146 127 0 751 0
751 146 127 147 127 321 0 321 0 148 -137 147 -136 0 -189 0 -188 205 0 205 0
0 294 0 294 -266 236 -267 236 -497 0 -497 0 -267 -237z"/>
<path d="M8620 3131 l0 -610 -115 -100 c-64 -55 -117 -102 -118 -104 -1 -2 51
-50 116 -107 l117 -103 0 -599 0 -598 205 0 205 0 0 598 0 598 115 102 c64 56
116 104 116 107 0 3 -52 51 -116 106 l-115 101 0 609 0 609 -205 0 -205 0 0
-609z"/>
<path d="M10380 3132 l0 -608 -105 -93 c-57 -51 -109 -99 -115 -106 -8 -10 17
-36 105 -114 l115 -102 0 -600 0 -599 205 0 205 0 0 600 0 600 505 0 505 0 0
205 0 205 -502 2 -503 3 0 400 0 400 633 3 632 2 0 205 0 205 -840 0 -840 0 0
-608z"/>
<path d="M12800 3535 l0 -205 410 0 410 0 0 -407 -1 -408 -114 -99 c-63 -54
-115 -100 -115 -101 0 -1 52 -47 115 -101 l114 -99 1 -602 0 -603 205 0 205 0
0 599 0 598 120 103 c66 57 120 104 120 105 0 1 -54 48 -120 105 l-120 103 2
401 3 401 413 3 412 2 0 205 0 205 -1030 0 -1030 0 0 -205z"/>
</g>
</svg>
